<?xml version="1.0" encoding="utf-8"?>
<!-- Generator: Adobe Illustrator 21.1.0, SVG Export Plug-In . SVG Version: 6.00 Build 0)  -->
<svg version="1.1" id="Icons" xmlns="http://www.w3.org/2000/svg" xmlns:xlink="http://www.w3.org/1999/xlink" x="0px" y="0px"
	 viewBox="0 0 48 48" style="enable-background:new 0 0 48 48;" xml:space="preserve">
<style type="text/css">
	.st0{opacity:0.15;fill:#45413C;}
	.st1{fill:#DAEDF7;stroke:#45413C;stroke-linecap:round;stroke-linejoin:round;stroke-miterlimit:10;}
	.st2{fill:#656769;}
	.st3{fill:#87898C;}
	.st4{fill:none;stroke:#45413C;stroke-linecap:round;stroke-linejoin:round;stroke-miterlimit:10;}
	.st5{fill:#DAEDF7;}
	.st6{fill:#E8F4FA;}
	.st7{fill:#FFFFFF;}
	.st8{fill:#E0E0E0;}
	.st9{fill:#00B8F0;}
	.st10{fill:#FF6242;stroke:#45413C;stroke-linecap:round;stroke-linejoin:round;stroke-miterlimit:10;}
	.st11{fill:#FFE500;stroke:#45413C;stroke-linecap:round;stroke-linejoin:round;stroke-miterlimit:10;}
	.st12{fill:#00DBA8;stroke:#45413C;stroke-linecap:round;stroke-linejoin:round;stroke-miterlimit:10;}
	.st13{fill:#BF8DF2;stroke:#45413C;stroke-linecap:round;stroke-linejoin:round;stroke-miterlimit:10;}
	.st14{fill:#00B8F0;stroke:#45413C;stroke-linecap:round;stroke-linejoin:round;stroke-miterlimit:10;}
	.st15{fill:#87898C;stroke:#45413C;stroke-linecap:round;stroke-linejoin:round;stroke-miterlimit:10;}
	.st16{fill:#FF6242;}
	.st17{fill:#E04122;}
	.st18{fill:#9CEB60;}
	.st19{fill:#6DD627;}
	.st20{fill:#FF866E;}
	.st21{fill:#F0F0F0;}
	.st22{fill:#009FD9;}
	.st23{fill:#656769;stroke:#45413C;stroke-linecap:round;stroke-linejoin:round;stroke-miterlimit:10;}
	.st24{fill:#ADC4D9;}
	.st25{fill:#8CA4B8;}
	.st26{fill:#BDBEC0;}
	.st27{fill:#C0DCEB;stroke:#45413C;stroke-linecap:round;stroke-linejoin:round;stroke-miterlimit:10;}
	.st28{fill:#4ACFFF;}
	.st29{fill:#FFFFFF;stroke:#45413C;stroke-linecap:round;stroke-linejoin:round;stroke-miterlimit:10;}
	.st30{fill:#C0DCEB;}
	.st31{fill:#FFAA54;stroke:#45413C;stroke-linecap:round;stroke-linejoin:round;stroke-miterlimit:10;}
	.st32{fill:#FF8A14;}
	.st33{fill:#FFAA54;}
	.st34{fill:#6DD627;stroke:#45413C;stroke-linecap:round;stroke-linejoin:round;stroke-miterlimit:10;}
	.st35{fill:#DEBB7E;}
	.st36{fill:#F0D5A8;}
	.st37{fill:none;stroke:#45413C;stroke-miterlimit:10;}
	.st38{fill:#FFE500;}
	.st39{fill:#FFF48C;}
	.st40{fill:#FFF48C;stroke:#45413C;stroke-linecap:round;stroke-linejoin:round;stroke-miterlimit:10;}
	.st41{fill:#FF8A14;stroke:#45413C;stroke-linecap:round;stroke-linejoin:round;stroke-miterlimit:10;}
	.st42{fill:#525252;}
	.st43{fill:#00F5BC;}
	.st44{fill:#8CFFE4;}
	.st45{fill:#00DBA8;}
	.st46{fill:#EBCB00;}
	.st47{fill:#FF866E;stroke:#45413C;stroke-linecap:round;stroke-linejoin:round;stroke-miterlimit:10;}
	.st48{fill:#FFCC99;}
	.st49{fill:#45413C;stroke:#45413C;stroke-linecap:round;stroke-linejoin:round;stroke-miterlimit:10;}
	.st50{fill:#C8FFA1;}
	.st51{fill:#BDBEC0;stroke:#45413C;stroke-linecap:round;stroke-linejoin:round;stroke-miterlimit:10;}
	.st52{fill:#80DDFF;}
	.st53{fill:#4ACFFF;stroke:#45413C;stroke-linecap:round;stroke-linejoin:round;stroke-miterlimit:10;}
	.st54{fill:#FFFCE5;}
	.st55{fill:#FFFACF;}
	.st56{fill:#627B8C;}
	.st57{fill:#BF8256;}
	.st58{fill:#DEA47A;}
	.st59{fill:#BF8256;stroke:#45413C;stroke-linecap:round;stroke-linejoin:round;stroke-miterlimit:10;}
	.st60{fill:#DEBB7E;stroke:#45413C;stroke-linecap:round;stroke-linejoin:round;stroke-miterlimit:10;}
	.st61{fill:#B89558;}
	.st62{fill:#B8ECFF;}
	.st63{fill:#F7E5C6;}
	.st64{fill:#FFF5E3;}
	.st65{fill:#915E3A;}
	.st66{fill:#45413C;stroke:#45413C;stroke-miterlimit:10;}
	.st67{fill:#FFB0CA;stroke:#45413C;stroke-linecap:round;stroke-linejoin:round;stroke-miterlimit:10;}
	.st68{fill:#FF87AF;stroke:#45413C;stroke-linecap:round;stroke-linejoin:round;stroke-miterlimit:10;}
	.st69{fill:#E5FEFF;}
	.st70{fill:#A6FBFF;}
	.st71{fill:#FFB0CA;}
	.st72{fill:#FF87AF;}
	.st73{fill:none;stroke:#45413C;stroke-linecap:round;stroke-miterlimit:10;}
	.st74{fill:#BF8DF2;}
	.st75{fill:#DABFF5;}
	.st76{fill:#4AEFF7;}
	.st77{fill:#00DFEB;}
	.st78{fill:#FFCEBF;}
	.st79{fill:#FF6196;stroke:#45413C;stroke-linecap:round;stroke-linejoin:round;stroke-miterlimit:10;}
	.st80{fill:#00DFEB;stroke:#45413C;stroke-linecap:round;stroke-linejoin:round;stroke-miterlimit:10;}
	.st81{fill:#FF6196;}
	.st82{fill:#EBCB00;stroke:#45413C;stroke-linecap:round;stroke-linejoin:round;stroke-miterlimit:10;}
	.st83{fill:#00F5BC;stroke:#45413C;stroke-linecap:round;stroke-linejoin:round;stroke-miterlimit:10;}
	.st84{fill:#4AEFF7;stroke:#45413C;stroke-linecap:round;stroke-linejoin:round;stroke-miterlimit:10;}
	.st85{fill:#46B000;}
	.st86{fill:#E0366F;}
	.st87{fill:#E0366F;stroke:#45413C;stroke-linecap:round;stroke-linejoin:round;stroke-miterlimit:10;}
	.st88{fill:none;stroke:#E04122;stroke-linecap:round;stroke-linejoin:round;stroke-miterlimit:10;}
	.st89{fill:#FFA694;}
	.st90{fill:#EDDBFF;stroke:#45413C;stroke-linecap:round;stroke-linejoin:round;stroke-miterlimit:10;}
	.st91{fill:none;stroke:#BF8DF2;stroke-linecap:round;stroke-linejoin:round;stroke-miterlimit:10;}
	.st92{fill:#EDDBFF;}
	.st93{fill:#DABFF5;stroke:#45413C;stroke-linecap:round;stroke-linejoin:round;stroke-miterlimit:10;}
	.st94{fill:#E04122;stroke:#45413C;stroke-linecap:round;stroke-linejoin:round;stroke-miterlimit:10;}
	.st95{fill:#EB6D00;}
	.st96{fill:none;stroke:#45413C;stroke-width:1.0064;stroke-linecap:round;stroke-linejoin:round;stroke-miterlimit:10;}
	.st97{fill:#915E3A;stroke:#45413C;stroke-linecap:round;stroke-linejoin:round;stroke-miterlimit:10;}
	.st98{fill:#E0E0E0;stroke:#45413C;stroke-linecap:round;stroke-linejoin:round;stroke-miterlimit:10;}
	.st99{fill:#F0F0F0;stroke:#45413C;stroke-linecap:round;stroke-linejoin:round;stroke-miterlimit:10;}
	.st100{fill:#46B000;stroke:#45413C;stroke-linecap:round;stroke-linejoin:round;stroke-miterlimit:10;}
	.st101{fill:#4F4B45;}
	.st102{fill:#FFDCD1;}
	.st103{fill:#8CA4B8;stroke:#45413C;stroke-linecap:round;stroke-linejoin:round;stroke-miterlimit:10;}
	.st104{fill:#E8F4FA;stroke:#45413C;stroke-linecap:round;stroke-linejoin:round;stroke-miterlimit:10;}
	.st105{fill:none;stroke:#48CF3E;stroke-linecap:round;stroke-linejoin:round;stroke-miterlimit:10;}
	.st106{fill:none;stroke:#FF4064;stroke-linecap:round;stroke-linejoin:round;stroke-miterlimit:10;}
	.st107{fill:none;stroke:#FFB700;stroke-linecap:round;stroke-linejoin:round;stroke-miterlimit:10;}
	.st108{fill:none;stroke:#00AED9;stroke-linecap:round;stroke-linejoin:round;stroke-miterlimit:10;}
	.st109{fill:#C0DCEB;stroke:#45413C;stroke-miterlimit:10;}
	.st110{fill:#525252;stroke:#45413C;stroke-linecap:round;stroke-linejoin:round;stroke-miterlimit:10;}
	.st111{fill:#FFF5E3;stroke:#45413C;stroke-linecap:round;stroke-linejoin:round;stroke-miterlimit:10;}
	.st112{fill:#FFFFFF;stroke:#45413C;stroke-linejoin:round;stroke-miterlimit:10;}
	.st113{fill:#F0C2A1;}
	.st114{fill:#DEA47A;stroke:#45413C;stroke-linecap:round;stroke-linejoin:round;stroke-miterlimit:10;}
	.st115{fill:#F0C2A1;stroke:#45413C;stroke-linecap:round;stroke-linejoin:round;stroke-miterlimit:10;}
	.st116{fill:#FFFEF2;}
	.st117{fill:#9CEB60;stroke:#45413C;stroke-linecap:round;stroke-linejoin:round;stroke-miterlimit:10;}
	.st118{fill:#9F5AE5;stroke:#45413C;stroke-linecap:round;stroke-linejoin:round;stroke-miterlimit:10;}
	.st119{fill:#627B8C;stroke:#45413C;stroke-linecap:round;stroke-linejoin:round;stroke-miterlimit:10;}
	.st120{fill:#FFFACF;stroke:#45413C;stroke-linecap:round;stroke-linejoin:round;stroke-miterlimit:10;}
</style>
<g id="XMLID_16611_">
	<ellipse id="XMLID_16635_" class="st0" cx="22.7" cy="46.5" rx="13" ry="1.5"/>
	<path id="XMLID_16634_" class="st7" d="M31.8,46.4L9.6,41.7c-1.4-0.3-2.3-1.7-2-3.1l7.2-34c0.3-1.4,1.7-2.3,3.1-2l22.2,4.7
		c1.4,0.3,2.3,1.7,2,3.1l-7.2,34C34.6,45.8,33.2,46.7,31.8,46.4z"/>
	<path id="XMLID_16633_" class="st8" d="M32.7,43.6l-24-5.1c-0.4-0.1-0.7-0.2-1-0.4l-0.1,0.6c-0.3,1.4,0.6,2.8,2,3.1l22.2,4.7
		c1.4,0.3,2.8-0.6,3.1-2l0.4-1.7C34.7,43.4,33.7,43.8,32.7,43.6z"/>
	<path id="XMLID_16632_" class="st4" d="M31.8,46.4L9.6,41.7c-1.4-0.3-2.3-1.7-2-3.1l7.2-34c0.3-1.4,1.7-2.3,3.1-2l22.2,4.7
		c1.4,0.3,2.3,1.7,2,3.1l-7.2,34C34.6,45.8,33.2,46.7,31.8,46.4z"/>
	<path id="XMLID_16631_" class="st2" d="M31.4,34.6c0,0-0.2-4.7-7.4-6.2c-7.2-1.5-9.7,2.5-9.7,2.5s1.5-0.1,4.1,0.1
		c-0.6,2.8,0.7,3.9,0.7,3.9s2.1-2.6,4-2.2s2.8,3.7,2.8,3.7s1.7-0.7,2.2-3.3C30.3,33.9,31.4,34.6,31.4,34.6z"/>
	<path id="XMLID_16630_" class="st42" d="M18.3,28.4c1,1.8,2.9,3.1,5.2,3.6c2.2,0.5,4.4,0,6-1.1c-1.1-1-2.8-2-5.4-2.5
		C21.7,27.9,19.7,28,18.3,28.4z"/>
	<path id="XMLID_16629_" class="st4" d="M31.4,34.6c0,0-0.2-4.7-7.4-6.2c-7.2-1.5-9.7,2.5-9.7,2.5s1.5-0.1,4.1,0.1
		c-0.6,2.8,0.7,3.9,0.7,3.9s2.1-2.6,4-2.2s2.8,3.7,2.8,3.7s1.7-0.7,2.2-3.3C30.3,33.9,31.4,34.6,31.4,34.6z"/>
	<path id="XMLID_16627_" class="st2" d="M33.6,16.6c-1.6-0.5-2.9-0.1-3.8,0.3c0-0.3-0.1-0.7,0-1.1c0.1-2.5,1.5-2.8,1.5-2.8
		s-2.7-1.5-5.4-0.6c-1.7,0.6-2.6,1.9-2.9,2.6c-0.6-0.6-1.6-1.2-2.9-1.3c-2.1-0.2-3.1,1.9-3.1,1.9s1.2,0.1,1.9,0.9
		c0.7,0.8,1,2.2,0.1,6.6l11.8,2.5c0.9-4.4,2.2-5.9,3.1-6.4c0.9-0.5,1.8-0.2,1.8-0.2S35.6,17.3,33.6,16.6z"/>
	<g id="XMLID_16623_">
		<path id="XMLID_16626_" class="st3" d="M20.1,15.9c1.3,0.1,2.3,0.7,2.9,1.3c0.3-0.8,1.3-2,2.9-2.6c1.5-0.5,3.1-0.3,4.1,0.1
			c0.4-1.4,1.3-1.6,1.3-1.6s-2.7-1.5-5.4-0.6c-1.7,0.6-2.6,1.9-2.9,2.6c-0.6-0.6-1.6-1.2-2.9-1.3c-2.1-0.2-3.1,1.9-3.1,1.9
			s0.8,0.1,1.5,0.6C19,16,19.5,15.9,20.1,15.9z"/>
		<path id="XMLID_16625_" class="st3" d="M29.8,18c0,0.4,0,0.8,0,1.1c0.8-0.4,2.2-0.8,3.8-0.3c0.3,0.1,0.5,0.2,0.8,0.4
			c0.7-0.2,1.4,0,1.4,0s-0.2-1.9-2.1-2.5c-1.5-0.5-2.8-0.2-3.6,0.2C29.9,17.2,29.8,17.5,29.8,18z"/>
		<path id="XMLID_16624_" class="st3" d="M19.5,20.2c-0.1,0.8-0.2,1.8-0.5,3l0.4,0.1C19.6,21.9,19.6,20.9,19.5,20.2z"/>
	</g>
	<path id="XMLID_16621_" class="st4" d="M33.6,16.6c-1.6-0.5-2.9-0.1-3.8,0.3c0-0.3-0.1-0.7,0-1.1c0.1-2.5,1.5-2.8,1.5-2.8
		s-2.7-1.5-5.4-0.6c-1.7,0.6-2.6,1.9-2.9,2.6c-0.6-0.6-1.6-1.2-2.9-1.3c-2.1-0.2-3.1,1.9-3.1,1.9s1.2,0.1,1.9,0.9
		c0.7,0.8,1,2.2,0.1,6.6l11.8,2.5c0.9-4.4,2.2-5.9,3.1-6.4c0.9-0.5,1.8-0.2,1.8-0.2S35.6,17.3,33.6,16.6z"/>
	<path id="XMLID_16620_" class="st102" d="M29.7,20.8c-0.8,0.8-2.5,1.1-4.2,0.7s-3.1-1.3-3.5-2.3c-1.5,0.8-2.6,2.2-3,4
		c-0.7,3.3,1.4,6.5,4.6,7.2c3.3,0.7,6.5-1.4,7.2-4.6C31.2,23.9,30.7,22.2,29.7,20.8z"/>
	<path id="XMLID_16619_" class="st78" d="M21,21.2c0.6,1.1,2.2,2.1,4.3,2.5c2,0.4,3.9,0.2,4.9-0.5c0.3,0.4,0.6,0.7,0.8,1.1
		c0-1.3-0.5-2.5-1.2-3.5c-0.8,0.8-2.5,1.1-4.2,0.7c-1.7-0.4-3.1-1.3-3.5-2.3c-1.2,0.7-2.2,1.8-2.7,3.2C19.7,21.9,20.3,21.5,21,21.2z
		"/>
	<path id="XMLID_16618_" class="st4" d="M29.7,20.8c-0.8,0.8-2.5,1.1-4.2,0.7s-3.1-1.3-3.5-2.3c-1.5,0.8-2.6,2.2-3,4
		c-0.7,3.3,1.4,6.5,4.6,7.2c3.3,0.7,6.5-1.4,7.2-4.6C31.2,23.9,30.7,22.2,29.7,20.8z"/>
	
		<ellipse id="XMLID_16617_" transform="matrix(0.2085 -0.978 0.978 0.2085 -2.8549 46.539)" class="st23" cx="27.3" cy="25" rx="0.5" ry="0.5"/>
	
		<ellipse id="XMLID_16616_" transform="matrix(0.2085 -0.978 0.978 0.2085 -5.7057 40.9312)" class="st23" cx="22.4" cy="24" rx="0.5" ry="0.5"/>
	
		<ellipse id="XMLID_16615_" transform="matrix(0.2085 -0.978 0.978 0.2085 -3.5383 28.537)" class="st15" cx="15.9" cy="16.5" rx="1" ry="1"/>
	
		<ellipse id="XMLID_16614_" transform="matrix(0.2085 -0.978 0.978 0.2085 9.5574 51.5203)" class="st15" cx="36.6" cy="19.9" rx="1" ry="1"/>
	
		<ellipse id="XMLID_16613_" transform="matrix(0.2085 -0.978 0.978 0.2085 12.59 42.2158)" class="st15" cx="32.4" cy="13.3" rx="1" ry="1"/>
	<path id="XMLID_16612_" class="st23" d="M22.7,27.6c0,0,0.4,0.6,1.4,0.8c0.9,0.2,1.6-0.2,1.6-0.2"/>
</g>
</svg>
