<svg xmlns="http://www.w3.org/2000/svg" width="552" height="186" viewBox="0 0 552 186">
  <path d="M 414 62 L 414 67 L 417 69 L 422 69 L 423 68 L 422 65 L 420 65 L 417 62 Z M 56 63 L 56 66 L 59 69 L 64 69 L 66 67 L 65 65 L 62 65 L 59 62 Z M 37 148 L 44 164 L 48 163 L 55 153 L 64 134 L 66 124 L 68 120 L 69 103 L 72 100 L 78 98 L 96 88 L 110 93 L 127 93 L 137 90 L 144 84 L 147 84 L 156 88 L 162 88 L 163 89 L 168 89 L 178 86 L 184 93 L 188 93 L 194 87 L 196 90 L 205 94 L 222 95 L 236 91 L 242 87 L 244 87 L 249 91 L 256 94 L 274 95 L 275 94 L 283 94 L 284 93 L 294 92 L 310 86 L 322 74 L 325 74 L 327 76 L 325 81 L 325 91 L 327 94 L 334 97 L 342 97 L 352 94 L 364 87 L 367 87 L 370 90 L 376 93 L 389 94 L 404 90 L 413 85 L 421 91 L 426 93 L 447 92 L 460 86 L 467 93 L 471 93 L 480 83 L 486 79 L 489 79 L 497 88 L 502 91 L 515 91 L 526 87 L 530 83 L 530 81 L 526 81 L 524 83 L 514 87 L 504 87 L 493 76 L 484 75 L 479 78 L 470 87 L 467 85 L 464 80 L 462 80 L 454 85 L 442 89 L 428 89 L 423 87 L 417 81 L 413 80 L 394 89 L 388 89 L 387 90 L 378 89 L 371 82 L 384 67 L 393 49 L 399 26 L 398 21 L 394 21 L 381 27 L 373 34 L 368 41 L 365 47 L 362 58 L 362 73 L 364 80 L 356 87 L 341 93 L 334 93 L 329 89 L 329 84 L 332 75 L 331 72 L 329 70 L 322 70 L 316 65 L 307 66 L 303 70 L 303 73 L 305 75 L 310 75 L 312 77 L 310 80 L 299 86 L 288 89 L 259 90 L 253 88 L 250 85 L 250 83 L 262 73 L 263 70 L 261 67 L 254 67 L 245 73 L 243 76 L 242 81 L 239 84 L 225 90 L 213 91 L 204 89 L 201 86 L 207 81 L 208 79 L 207 75 L 198 76 L 186 87 L 183 84 L 183 82 L 189 76 L 199 62 L 208 40 L 211 23 L 210 21 L 206 21 L 189 30 L 180 41 L 177 47 L 174 58 L 175 81 L 171 84 L 166 85 L 158 84 L 150 81 L 142 76 L 139 76 L 137 78 L 131 76 L 110 76 L 103 78 L 93 85 L 69 96 L 67 94 L 66 85 L 64 80 L 61 79 L 54 84 L 54 86 L 55 87 L 59 86 L 62 89 L 63 98 L 53 105 L 43 117 L 37 132 Z M 62 105 L 64 107 L 64 115 L 62 125 L 56 142 L 50 153 L 46 157 L 44 155 L 41 143 L 42 129 L 47 118 L 58 107 Z M 103 85 L 105 82 L 112 80 L 131 80 L 132 81 L 137 80 L 139 82 L 135 86 L 125 89 L 113 89 L 105 87 Z M 392 27 L 394 29 L 393 35 L 386 54 L 376 70 L 370 76 L 367 73 L 366 68 L 367 55 L 370 46 L 373 41 L 383 31 Z M 204 27 L 206 29 L 205 35 L 198 54 L 188 70 L 182 76 L 179 73 L 178 68 L 179 55 L 182 46 L 185 41 L 193 33 Z" fill="black" fill-rule="evenodd"/>
</svg>